<?xml version="1.0" encoding="utf-8"?>
<!-- Generator: Adobe Illustrator 25.4.1, SVG Export Plug-In . SVG Version: 6.00 Build 0)  -->
<svg version="1.1" id="Layer_1" xmlns="http://www.w3.org/2000/svg" xmlns:xlink="http://www.w3.org/1999/xlink" x="0px" y="0px"
	 viewBox="0 0 527.3 221.2" style="enable-background:new 0 0 527.3 221.2;" xml:space="preserve">
<style type="text/css">
	.st0{fill:#474747;}
	.st1{fill:url(#SVGID_1_);}
	.st2{fill:url(#SVGID_00000084504215561845881430000007374049631004460704_);}
	.st3{fill:url(#SVGID_00000085958035552327643020000015437044056609457314_);}
	.st4{fill:url(#SVGID_00000160883817194771023040000002354554952654324374_);}
	.st5{fill:url(#SVGID_00000033348889104735307090000017854222323847670711_);}
	.st6{fill:url(#SVGID_00000164486426725452173710000004157286488977549756_);}
	.st7{fill:url(#SVGID_00000070107872648966893320000007912198498264499626_);}
	.st8{fill:url(#SVGID_00000114046028833368152820000011646958437429564561_);}
	.st9{fill:url(#SVGID_00000160169935734037331730000012044880035871913641_);}
	.st10{fill:url(#SVGID_00000047047881199018454480000017138250893057743033_);}
	.st11{fill:url(#SVGID_00000091713201420492878460000013428580884983074974_);}
	.st12{fill:url(#SVGID_00000008115166223352438790000012455442834800407983_);}
	.st13{fill:url(#SVGID_00000088814405789877063370000006999547166914921110_);}
	.st14{fill:url(#SVGID_00000166655238449828309930000002667398802600870317_);}
	.st15{fill:url(#SVGID_00000070814703261154685760000013378248234328077730_);}
	.st16{fill:url(#SVGID_00000063629794324507945510000005939559178404657831_);}
	.st17{fill:url(#SVGID_00000060726910919651022910000006525466987357671852_);}
	.st18{fill:url(#SVGID_00000080898252019135263850000009799454844017417873_);}
	.st19{fill:url(#SVGID_00000170254569824321737610000000420476893074539396_);}
	.st20{fill:url(#SVGID_00000034767995090760628260000005926895061253991833_);}
	.st21{fill:url(#SVGID_00000110455607950121272310000002769644710245887900_);}
	.st22{fill:url(#SVGID_00000027569353121435317260000011395840145417913234_);}
	.st23{fill:url(#SVGID_00000039098022580960016080000003095847836428221329_);}
	.st24{fill:url(#SVGID_00000085214343977356432050000018284131049732722876_);}
	.st25{fill:url(#SVGID_00000048473653273363648030000009293994776304266416_);}
	.st26{fill:url(#SVGID_00000105415538041630319810000001849616350126266030_);}
	.st27{fill:url(#SVGID_00000041290370106159711830000013277251509109446547_);}
	.st28{fill:url(#SVGID_00000090259054776337161220000016655398197211883452_);}
	.st29{fill:url(#SVGID_00000132052878775265190230000016470580359770115506_);}
	.st30{fill:url(#SVGID_00000080899768805541717700000008023545802549007767_);}
	.st31{fill:url(#SVGID_00000089573112287979683080000009302197168233904040_);}
	.st32{fill:url(#SVGID_00000062912764834971153020000015418284209811612580_);}
	.st33{fill:url(#SVGID_00000038398394673283402730000017447536482782534817_);}
	.st34{fill:url(#SVGID_00000090279752144937300980000016742975429772958903_);}
	.st35{fill:url(#SVGID_00000168085408790593970140000007083616194193754810_);}
	.st36{fill:url(#SVGID_00000168118504854690117990000015454116238062165423_);}
	.st37{fill:url(#SVGID_00000018230553287790629690000017798387592144558228_);}
	.st38{fill:url(#SVGID_00000093888557566253320890000017952801109406356408_);}
	.st39{fill:url(#SVGID_00000008859662480173729030000013736808983613923504_);}
	.st40{fill:url(#SVGID_00000057117044547597800580000013896541476068883875_);}
	.st41{fill:url(#SVGID_00000003088478542031442560000018404069381129806269_);}
	.st42{fill:url(#SVGID_00000140720585421235877580000002985419059580086427_);}
	.st43{fill:url(#SVGID_00000126295073240255077020000014453120463138459781_);}
	.st44{fill:url(#SVGID_00000109016731365617455180000005233382122930789534_);}
	.st45{fill:url(#SVGID_00000180348306558483181730000003642491877288774293_);}
	.st46{fill:url(#SVGID_00000168103364141899149590000016214049640467034301_);}
	.st47{fill:url(#SVGID_00000078019883608934170230000014605800491992473483_);}
	.st48{fill:url(#SVGID_00000121969320461254298340000013489331139936450236_);}
	.st49{fill:url(#SVGID_00000089559194718781795660000017199838941685273736_);}
	.st50{fill:url(#SVGID_00000100361154198127248030000007426207878109110442_);}
	.st51{fill:url(#SVGID_00000067217317827481374410000002032804136087749271_);}
	.st52{fill:url(#SVGID_00000006682379205447839600000011513902382728817290_);}
	.st53{fill:url(#SVGID_00000023971581482912963550000011461007083730126001_);}
	.st54{fill:url(#SVGID_00000162332912624538682160000010918111321115474102_);}
	.st55{fill:url(#SVGID_00000042715822690003198780000014594617126050905770_);}
	.st56{fill:url(#SVGID_00000031891867275659285680000003530230449585045639_);}
	.st57{fill:url(#SVGID_00000006693577718405008010000011785941357059345829_);}
	.st58{fill:url(#SVGID_00000017487474221118988030000009056285545673940882_);}
	.st59{fill:url(#SVGID_00000124124239343669014470000016584098225202312636_);}
	.st60{fill:url(#SVGID_00000006690063165005061650000011708179787405160364_);}
	.st61{fill:url(#SVGID_00000049928369595895344140000013336346164338798212_);}
	.st62{fill:url(#SVGID_00000000190447705742687580000001086288552719741331_);}
	.st63{fill:url(#SVGID_00000052804175926816867640000005686056621348373153_);}
	.st64{fill:url(#SVGID_00000037688424443792516260000007412954169103376781_);}
	.st65{fill:url(#SVGID_00000125587092647383681400000005994358681094330011_);}
	.st66{fill:url(#SVGID_00000099659979342831415740000015350792530389733262_);}
	.st67{fill:#063843;}
	.st68{fill:#3AA2DB;}
	.st69{fill:#DB9437;}
</style>
<g>
	<path d="M-1005.7,376.5h5.5l11.1,46.4h-7.8l-6-30.4l-6,30.4h-7.8L-1005.7,376.5z M-1009.2,408.3h12.6v7.4h-12.6V408.3z"/>
	<path d="M-978.4,422.9h-7.9v-46.4h7.9V422.9z"/>
	<path d="M-956,396.6v7.6h-17v-7.6H-956z"/>
	<path d="M-952.9,376.5h8.4l4.4,32l4.4-32h8.4l-8.5,46.4h-8.5L-952.9,376.5z"/>
	<path d="M-919,422.1c-1.8-0.9-3.1-2.1-4.1-3.7c-0.9-1.6-1.4-3.6-1.4-5.9V387c0-2.3,0.5-4.3,1.4-5.9c0.9-1.6,2.3-2.9,4.1-3.7
		s3.9-1.3,6.4-1.3s4.6,0.4,6.4,1.3c1.8,0.9,3.1,2.1,4.1,3.7s1.4,3.6,1.4,5.9v25.5c0,2.3-0.5,4.3-1.4,5.9s-2.3,2.9-4.1,3.7
		c-1.8,0.9-3.9,1.3-6.4,1.3S-917.2,422.9-919,422.1z M-910.5,415c0.6-0.3,1-0.8,1.3-1.4c0.3-0.6,0.4-1.3,0.4-2.2v-23.5
		c0-0.8-0.1-1.5-0.4-2.1c-0.3-0.6-0.7-1.1-1.3-1.4c-0.6-0.3-1.3-0.5-2.1-0.5c-0.8,0-1.5,0.2-2.1,0.5c-0.6,0.3-1,0.8-1.3,1.4
		c-0.3,0.6-0.4,1.3-0.4,2.1v23.5c0,0.9,0.1,1.6,0.4,2.2c0.3,0.6,0.7,1.1,1.3,1.4c0.6,0.3,1.3,0.5,2.1,0.5
		C-911.8,415.5-911.1,415.3-910.5,415z"/>
	<path d="M-895,376.5h7.9v46.4h-7.9V376.5z M-891.8,415.3h16.7v7.6h-16.7V415.3z"/>
	<path d="M-866.4,422c-1.7-0.9-2.9-2.3-3.8-4c-0.9-1.8-1.3-3.9-1.3-6.3v-35.1h7.9v35.4c0,1.1,0.3,2,0.8,2.6c0.6,0.6,1.3,0.9,2.3,0.9
		c1,0,1.8-0.3,2.3-0.9c0.6-0.6,0.8-1.5,0.8-2.6v-35.4h7.9v35.1c0,2.4-0.4,4.5-1.3,6.3c-0.9,1.8-2.2,3.1-3.8,4
		c-1.7,0.9-3.7,1.4-6,1.4C-862.7,423.4-864.7,422.9-866.4,422z"/>
	<path d="M-847.3,376.5h23.2v7.6h-23.2V376.5z M-839.7,380.4h7.9v42.5h-7.9V380.4z"/>
	<path d="M-814.4,422.9h-7.9v-46.4h7.9V422.9z"/>
	<path d="M-803.9,422.1c-1.8-0.9-3.1-2.1-4.1-3.7s-1.4-3.6-1.4-5.9V387c0-2.3,0.5-4.3,1.4-5.9s2.3-2.9,4.1-3.7s3.9-1.3,6.4-1.3
		c2.5,0,4.6,0.4,6.4,1.3c1.8,0.9,3.1,2.1,4.1,3.7s1.4,3.6,1.4,5.9v25.5c0,2.3-0.5,4.3-1.4,5.9s-2.3,2.9-4.1,3.7
		c-1.8,0.9-3.9,1.3-6.4,1.3C-800,423.4-802.1,422.9-803.9,422.1z M-795.4,415c0.6-0.3,1-0.8,1.3-1.4c0.3-0.6,0.4-1.3,0.4-2.2v-23.5
		c0-0.8-0.1-1.5-0.4-2.1c-0.3-0.6-0.7-1.1-1.3-1.4c-0.6-0.3-1.3-0.5-2.1-0.5s-1.5,0.2-2.1,0.5c-0.6,0.3-1,0.8-1.3,1.4
		c-0.3,0.6-0.4,1.3-0.4,2.1v23.5c0,0.9,0.1,1.6,0.4,2.2c0.3,0.6,0.7,1.1,1.3,1.4c0.6,0.3,1.3,0.5,2.1,0.5S-796,415.3-795.4,415z"/>
	<path d="M-779.9,376.5h6.2l10.9,30.9l-0.9,1.2v-32.2h7.2v46.3h-6.3l-10.8-29.1l0.8-1.3v30.4h-7.2V376.5z"/>
	<path d="M-742,376.5h5.5l11.1,46.4h-7.8l-6-30.4l-6,30.4h-7.8L-742,376.5z M-745.5,408.3h12.6v7.4h-12.6V408.3z"/>
	<path d="M-721.9,376.5h7.7v46.4h-7.7V376.5z M-718.4,395.7h8.4c0.7,0,1.3-0.1,1.8-0.4c0.5-0.2,0.9-0.6,1.1-1.1
		c0.3-0.5,0.4-1,0.4-1.6v-5.2c0-0.7-0.1-1.3-0.4-1.8c-0.3-0.5-0.6-0.9-1.1-1.2c-0.5-0.3-1.1-0.4-1.8-0.4h-8.4v-7.6h7.9
		c2.5,0,4.7,0.4,6.4,1.2c1.8,0.8,3.1,2,4.1,3.6s1.4,3.5,1.4,5.7v5.4c0,2.3-0.5,4.2-1.4,5.9s-2.3,2.9-4.1,3.7
		c-1.8,0.9-3.9,1.3-6.4,1.3h-7.9V395.7z M-711.9,401.9l7.2-1.5l7.4,22.5h-8.5L-711.9,401.9z"/>
	<path d="M-679.7,405.1v17.8h-7.9v-17.8l-8.7-28.6h8.2l4.3,19.2l4.1-19.2h8.2L-679.7,405.1z"/>
	<path d="M-1017.7,431.5h23.2v7.6h-23.2V431.5z M-1010.1,435.4h7.9v42.5h-7.9V435.4z"/>
	<path d="M-984.8,477.9h-7.9v-46.4h7.9V477.9z"/>
	<path d="M-956.6,431.5h7.4v46.4h-7v-32.4l0.5,2l-6.7,22.1h-4l-6.7-21.5l0.6-2.7v32.4h-7.2v-46.4h7.6l7.7,25.2L-956.6,431.5z"/>
	<path d="M-943.5,431.5h7.9v46.4h-7.9V431.5z M-940,431.5h17.1v7.7H-940V431.5z M-940,451h15.5v7.7H-940V451z M-940,470.2h17.1v7.7
		H-940V470.2z"/>
	<path d="M-1017.7,486.5h23.2v7.6h-23.2V486.5z M-1010.1,490.4h7.9v42.5h-7.9V490.4z"/>
	<path d="M-983.2,486.5h5.5l11.1,46.4h-7.8l-6-30.4l-6,30.4h-7.8L-983.2,486.5z M-986.7,518.3h12.6v7.4h-12.6V518.3z"/>
	<path d="M-963.1,486.5h7.9v46.4h-7.9V486.5z M-958.6,525.5h7c1,0,1.7-0.3,2.3-0.8s0.8-1.2,0.8-2.2v-6.2c0-0.8-0.1-1.4-0.4-2
		c-0.2-0.5-0.6-1-1.1-1.2c-0.5-0.3-1.1-0.4-1.8-0.4h-6.8v-7.3h6.6c0.9,0,1.7-0.3,2.2-0.9c0.5-0.6,0.8-1.4,0.8-2.6v-5
		c0-0.9-0.3-1.7-0.8-2.2c-0.5-0.5-1.2-0.8-2.2-0.8h-6.7v-7.4h7.5c2.1,0,3.9,0.4,5.4,1.1c1.5,0.7,2.6,1.8,3.4,3.3
		c0.8,1.4,1.2,3.2,1.2,5.2v5c0,1.4-0.3,2.6-0.8,3.7c-0.5,1.1-1.3,2-2.3,2.6c-1,0.7-2.2,1.2-3.7,1.4c1.6,0.2,2.9,0.7,4,1.4
		c1.1,0.7,1.9,1.6,2.5,2.8c0.6,1.1,0.9,2.5,0.9,4v6.3c0,2-0.4,3.8-1.1,5.2s-1.9,2.5-3.4,3.3c-1.5,0.8-3.2,1.1-5.3,1.1h-8.2V525.5z"
		/>
	<path d="M-935.8,486.5h7.9v46.4h-7.9V486.5z M-932.5,525.3h16.7v7.6h-16.7V525.3z"/>
	<path d="M-911.7,486.5h7.9v46.4h-7.9V486.5z M-908.2,486.5h17.1v7.7h-17.1V486.5z M-908.2,506h15.5v7.7h-15.5V506z M-908.2,525.2
		h17.1v7.7h-17.1V525.2z"/>
</g>
<g>
	<g>
		<g>
			<path class="st0" d="M283.6,759.4c0-0.7,0.1-1.5,0-2.3c0-0.1,0-0.3,0-0.4c-0.1-0.8-0.1-1.5,0-2.2V739c-0.2-1.1-0.1-2.6-0.1-4.8
				c0-0.2,0-0.5,0.1-0.7v-18.3c0-0.1,0-0.3,0-0.4c0-1,0-1.8,0-2.5V696c0-0.4-0.1-0.8,0-1.3c0-0.1,0-0.2,0-0.3v-19.9
				c0-0.3,0-0.5,0-0.8c0-1.1,0-2.3,0-3.4c0-3,0-6,0-9c0-1.9,0-3.7,0-5.6c0-5.2,0-10.5,0-15.7c0-6.2,0-12.5-0.1-18.7
				c0-1.3-0.9-3.4-1.9-3.8c-1.6-0.7-3.8-0.7-5.5-0.2c-1.2,0.4-2.6,2-2.8,3.2c-0.4,3.1-0.1,6.3-0.1,10.5c-2-1.3-2.9-1.9-3.8-2.5
				c-7.7-5.6-16.2-8-25.7-6.6c-11.7,1.8-20.6,7.7-26.4,18.1c-0.9,1.6-2.9,3.3-4.6,3.8c-19.1,5.6-27.7,19.7-29.3,38.2
				c-0.3,2.9-1.4,4.6-3.4,6.6c-3.9,3.8-8.2,7.6-10.7,12.2c-9.5,17.6-10.4,35.8-1.9,54.2c1.7,3.7,3.8,7.2,3.3,11.6
				c-1,8.3,0.9,16.2,4.7,23.5c6.2,12.2,15.9,19.8,29.9,21.4c1.6,0.2,3.7,1.3,4.4,2.7c4.1,7.2,10,12.2,17.5,15.3
				c15,6.2,29.2,5.1,42.3-5c0.8-0.6,1.8-1.1,3.7-2.2c0,4.3-0.1,7.6,0.1,10.9c0.1,1.3,0.6,3.2,1.5,3.8c4.2,2.6,8.8,0,8.9-4.9
				c0-1,0-2,0-3c0-14.1,0-28.2,0-42.3v-26.1c0-0.3,0-0.7,0-1.1C283.5,759.6,283.6,759.5,283.6,759.4z M245.2,657.1
				c5.1,10.1,13.2,16,24.5,17.4c1.4,0.2,3.8,1.5,3.8,2.4c0.3,9.8,0.2,19.6,0.2,29.6c-3.8-1-7.1-2.5-10.6-2.8
				c-12.7-1.2-22.4,4.5-30.2,13.9c-3.7,4.5-8.3,7.4-14.3,7.7c-3.7,0.2-6.1-1.2-7.4-4.9c-2.5-6.9-7.6-10.9-14.7-12.3
				c-1.2-0.2-3.9,0.7-3.9,1.2c0,2.6-1.8,5.8,1.6,7.8c0.6,0.4,1.4,0.5,2.1,0.8c4.1,2.1,6.6,5.3,6.5,10c-0.1,4.6-3,7.1-6.8,9
				c-1.3,0.6-3.2,1.6-3.5,2.8c-0.4,2-0.5,4.8,0.6,6.3c0.7,1,3.9,0.7,5.8,0.1c5.1-1.5,8.8-4.9,11.7-9.4c0.6-1,2.3-2,3.4-1.8
				c10.1,1.5,18-2.5,25-9.3c2.4-2.3,4.7-4.8,7.2-7.1c6.5-5.9,14-7.3,20.6-3.6c4.6,2.6,7.4,6.4,7.4,12c-0.1,13.1,0,26.2,0,39.3
				c0,5.2-0.2,5.4-5.3,6.1c-10.3,1.4-17.4,7.4-22.7,16c-1,1.6-3,3.9,0.1,5.7c4.3,2.5,6.4,2.4,8.4-0.9c3.3-5.7,7.9-9.5,14.3-11.2
				c3.8-1,5.2-0.1,5.2,3.8c-0.1,6.8,0.7,13.7-2.2,20.3c-9.1,20.4-36.3,22.5-49.5,8.1c-7.6-8.3-9.9-17.8-5.3-28
				c4.9-10.9,14-16.6,25.9-17.4c6.4-0.4,6.6-0.3,6.4-6.5c-0.3-7.3,4.6-10.9,9.8-14.3c2.6-1.7,4.4-6.1,2.6-8.5c-0.8-1-3.5-1.6-4.8-1
				c-7.9,3.3-14.1,8.5-16.6,17.1c-0.8,2.8-1.9,4.1-4.8,4.6c-7.1,1.4-13.4,4.6-18.7,9.6c-2,1.9-3.8,1.8-6,0.6c-3.9-2-7.2-4.4-8.5-8.9
				c-0.7-2.3-4.5-3.3-7.7-2.3c-2.9,0.9-2,3.1-1.6,5c1.2,5.6,4.7,9.5,9.4,12.5c6.7,4.3,6.6,2.5,4.1,11c-1,3.3-1,6.9-1.1,10.3
				c-0.1,2.9-1,3.6-3.9,2.9c-10.7-2.9-21.2-16.4-20.6-29.2c0.5-8.8-2-16.1-5.3-24c-7.1-16.9-4.9-33.2,6.9-47.7
				c2.1-2.5,5-4.6,7.9-6.2c2.8-1.5,3.6-2.9,3.3-6.1c-1-12.7,3.3-23.3,13.9-30.8c1.6-1.2,3.7-1.7,5.4-2.5c1.2,5.4,2.2,10.3,3.4,15
				c0.5,2.1,2.3,4.3,1.9,6.1c-0.4,1.6-3.2,2.5-4.8,3.9c-3.9,3.4-7.1,7.3-7.9,12.7c-0.3,2.3,0.3,3.3,2.7,3.3c3.2,0,5.8,0.3,7.7-3.8
				c1.4-3.1,5.3-5.3,8.4-7.4c0.9-0.6,2.9,0.4,4.4,1c5.2,1.9,10.3,4.1,15.6,5.9c2,0.7,4.3,1.1,5-2c0.9-4.5-0.1-6.8-3.7-7.4
				c-6.2-1-11.2-3.8-15.5-8.2c-9.5-9.8-8.4-26.4,1.6-35.5c8.8-7.9,22.3-7.3,29-3.5c9.4,5.4,15.1,16.9,13.2,27.6
				c-0.2,1-2.4,2.7-3.1,2.5c-3.5-1-7.2-2.1-10.1-4.2c-2.6-1.8-4.8-4.7-6.5-7.6c-2.5-4.1-5-1-7.4-0.4
				C243.6,653,244.2,655.2,245.2,657.1z"/>
		</g>
	</g>
	<g>
		<linearGradient id="SVGID_1_" gradientUnits="userSpaceOnUse" x1="228.9787" y1="702.8533" x2="610.588" y2="501.6041">
			<stop  offset="0" style="stop-color:#267AA1"/>
			<stop  offset="1" style="stop-color:#3EB2E7"/>
		</linearGradient>
		<polygon class="st1" points="306.7,690.5 323.3,690.5 323.3,680.4 306.7,680.4 306.7,665.4 321.2,665.4 321.2,655.4 306.7,655.4 
			306.7,640 323.3,640 323.3,630 306.7,630 300.9,630 296.4,630 296.4,690.5 300.9,690.5 		"/>
		
			<linearGradient id="SVGID_00000180350457754845550530000000270311579556556723_" gradientUnits="userSpaceOnUse" x1="234.6771" y1="713.6584" x2="616.2863" y2="512.4093">
			<stop  offset="0" style="stop-color:#267AA1"/>
			<stop  offset="1" style="stop-color:#3EB2E7"/>
		</linearGradient>
		<polygon style="fill:url(#SVGID_00000180350457754845550530000000270311579556556723_);" points="347.2,690.5 358.3,630 
			347.4,630 341.6,671.8 335.8,630 324.8,630 336,690.5 		"/>
		
			<linearGradient id="SVGID_00000060740954718875956430000017973467460968672899_" gradientUnits="userSpaceOnUse" x1="243.5141" y1="730.4152" x2="625.1233" y2="529.166">
			<stop  offset="0" style="stop-color:#267AA1"/>
			<stop  offset="1" style="stop-color:#3EB2E7"/>
		</linearGradient>
		<path style="fill:url(#SVGID_00000060740954718875956430000017973467460968672899_);" d="M368.3,689.4c2.3,1.1,5.1,1.7,8.3,1.7
			s6-0.6,8.3-1.7c2.3-1.1,4.1-2.7,5.3-4.9c1.2-2.1,1.8-4.7,1.8-7.7v-33.3c0-3-0.6-5.6-1.8-7.7c-1.2-2.1-3-3.8-5.3-4.9
			c-2.3-1.1-5.1-1.7-8.3-1.7s-6,0.6-8.3,1.7c-2.3,1.1-4.1,2.7-5.3,4.9c-1.2,2.1-1.8,4.7-1.8,7.7v33.3c0,3,0.6,5.6,1.8,7.7
			C364.2,686.7,366,688.3,368.3,689.4z M371.6,644.8c0-1.1,0.2-2,0.6-2.8c0.4-0.8,1-1.4,1.7-1.8c0.7-0.4,1.7-0.6,2.7-0.6
			c1.1,0,2,0.2,2.7,0.6c0.8,0.4,1.3,1,1.7,1.8c0.4,0.8,0.6,1.7,0.6,2.8v30.7c0,1.1-0.2,2.1-0.6,2.8c-0.4,0.8-1,1.4-1.7,1.8
			c-0.8,0.4-1.7,0.6-2.7,0.6c-1.1,0-2-0.2-2.7-0.6c-0.7-0.4-1.3-1-1.7-1.8c-0.4-0.8-0.6-1.7-0.6-2.8V644.8z"/>
		
			<linearGradient id="SVGID_00000037669171601238633810000000337887780004398497_" gradientUnits="userSpaceOnUse" x1="251.1557" y1="744.9054" x2="632.765" y2="543.6562">
			<stop  offset="0" style="stop-color:#267AA1"/>
			<stop  offset="1" style="stop-color:#3EB2E7"/>
		</linearGradient>
		<polygon style="fill:url(#SVGID_00000037669171601238633810000000337887780004398497_);" points="409,630 398.7,630 398.7,690.5 
			402.9,690.5 409,690.5 424.8,690.5 424.8,680.6 409,680.6 		"/>
		
			<linearGradient id="SVGID_00000044146670913634858930000013782411998307689362_" gradientUnits="userSpaceOnUse" x1="256.8204" y1="755.6468" x2="638.4297" y2="554.3976">
			<stop  offset="0" style="stop-color:#267AA1"/>
			<stop  offset="1" style="stop-color:#3EB2E7"/>
		</linearGradient>
		<path style="fill:url(#SVGID_00000044146670913634858930000013782411998307689362_);" d="M446.4,676.1c0,1.5-0.4,2.6-1.1,3.4
			c-0.7,0.8-1.8,1.2-3.1,1.2c-1.3,0-2.3-0.4-3-1.2c-0.7-0.8-1.1-2-1.1-3.4V630h-10.4v45.9c0,3.2,0.6,5.9,1.7,8.2
			c1.1,2.3,2.8,4,5,5.2c2.2,1.2,4.8,1.8,7.8,1.8c3,0,5.6-0.6,7.8-1.8c2.2-1.2,3.8-3,5-5.2c1.2-2.3,1.7-5,1.7-8.2V630h-10.4V676.1z"
			/>
		
			<linearGradient id="SVGID_00000085946918779406730500000013734940922777917088_" gradientUnits="userSpaceOnUse" x1="263.721" y1="768.7316" x2="645.3302" y2="567.4825">
			<stop  offset="0" style="stop-color:#267AA1"/>
			<stop  offset="1" style="stop-color:#3EB2E7"/>
		</linearGradient>
		<polygon style="fill:url(#SVGID_00000085946918779406730500000013734940922777917088_);" points="459.3,639.9 469.3,639.9 
			469.3,690.5 479.6,690.5 479.6,639.9 489.6,639.9 489.6,630 459.3,630 		"/>
		
			<linearGradient id="SVGID_00000001648422902150960260000013165227371093608108_" gradientUnits="userSpaceOnUse" x1="270.1167" y1="780.8591" x2="651.7259" y2="579.6099">
			<stop  offset="0" style="stop-color:#267AA1"/>
			<stop  offset="1" style="stop-color:#3EB2E7"/>
		</linearGradient>
		
			<rect x="493.7" y="630" style="fill:url(#SVGID_00000001648422902150960260000013165227371093608108_);" width="10.3" height="60.5"/>
		
			<linearGradient id="SVGID_00000028303209970772239090000012819584161890212005_" gradientUnits="userSpaceOnUse" x1="276.0367" y1="792.0847" x2="657.6459" y2="590.8356">
			<stop  offset="0" style="stop-color:#267AA1"/>
			<stop  offset="1" style="stop-color:#3EB2E7"/>
		</linearGradient>
		<path style="fill:url(#SVGID_00000028303209970772239090000012819584161890212005_);" d="M534.4,631c-2.3-1.1-5.1-1.7-8.3-1.7
			c-3.2,0-6,0.6-8.3,1.7c-2.3,1.1-4.1,2.7-5.3,4.9c-1.2,2.1-1.8,4.7-1.8,7.7v33.3c0,3,0.6,5.6,1.8,7.7c1.2,2.1,3,3.7,5.3,4.9
			c2.3,1.1,5.1,1.7,8.3,1.7c3.2,0,6-0.6,8.3-1.7c2.3-1.1,4.1-2.7,5.3-4.9c1.2-2.1,1.8-4.7,1.8-7.7v-33.3c0-3-0.6-5.6-1.8-7.7
			C538.5,633.7,536.8,632.1,534.4,631z M531.1,675.5c0,1.1-0.2,2.1-0.6,2.8c-0.4,0.8-1,1.4-1.7,1.8c-0.8,0.4-1.7,0.6-2.7,0.6
			c-1.1,0-2-0.2-2.7-0.6c-0.7-0.4-1.3-1-1.7-1.8c-0.4-0.8-0.6-1.7-0.6-2.8v-30.7c0-1.1,0.2-2,0.6-2.8c0.4-0.8,1-1.4,1.7-1.8
			c0.7-0.4,1.7-0.6,2.7-0.6c1.1,0,2,0.2,2.7,0.6c0.8,0.4,1.3,1,1.7,1.8c0.4,0.8,0.6,1.7,0.6,2.8V675.5z"/>
		
			<linearGradient id="SVGID_00000145768122105611579850000016693422871362880701_" gradientUnits="userSpaceOnUse" x1="284.168" y1="807.5034" x2="665.7773" y2="606.2542">
			<stop  offset="0" style="stop-color:#267AA1"/>
			<stop  offset="1" style="stop-color:#3EB2E7"/>
		</linearGradient>
		<polygon style="fill:url(#SVGID_00000145768122105611579850000016693422871362880701_);" points="569.4,667.1 556.3,630 
			548.2,630 548.2,690.4 557.6,690.4 557.6,655.3 570.6,690.4 578.8,690.4 578.8,630 569.4,630 		"/>
		
			<linearGradient id="SVGID_00000130647708019632521330000004484303306084592772_" gradientUnits="userSpaceOnUse" x1="293.8113" y1="825.7889" x2="675.4205" y2="624.5397">
			<stop  offset="0" style="stop-color:#267AA1"/>
			<stop  offset="1" style="stop-color:#3EB2E7"/>
		</linearGradient>
		<path style="fill:url(#SVGID_00000130647708019632521330000004484303306084592772_);" d="M596.9,630l-14.4,60.5h10.2l1.9-9.4h11.9
			l1.9,9.4h10.2L604.2,630H596.9z M596.5,671.4l4.1-20.6l4.1,20.6H596.5z"/>
		
			<linearGradient id="SVGID_00000073706499003041269270000013742785640892536972_" gradientUnits="userSpaceOnUse" x1="300.6267" y1="838.7394" x2="682.236" y2="637.4902">
			<stop  offset="0" style="stop-color:#267AA1"/>
			<stop  offset="1" style="stop-color:#3EB2E7"/>
		</linearGradient>
		<path style="fill:url(#SVGID_00000073706499003041269270000013742785640892536972_);" d="M646.4,663.2c2.3-1.1,4.1-2.7,5.3-4.8
			c1.2-2.1,1.8-4.7,1.8-7.6v-7.1c0-2.9-0.6-5.4-1.8-7.4c-1.2-2.1-3-3.6-5.3-4.7s-5.1-1.6-8.4-1.6h-4.8h-5.5h-4.6v60.6h10.1v-25.6
			h3.5l7.5,25.6h11.1L646.4,663.2C646.3,663.2,646.3,663.2,646.4,663.2z M633.2,639.8h5.4c0.9,0,1.7,0.2,2.3,0.5
			c0.7,0.3,1.1,0.9,1.5,1.5c0.3,0.7,0.5,1.5,0.5,2.4v6.7c0,0.8-0.2,1.5-0.5,2.1c-0.3,0.6-0.8,1.1-1.5,1.4c-0.7,0.3-1.4,0.5-2.3,0.5
			h-5.4V639.8z"/>
		
			<linearGradient id="SVGID_00000019639730583834721770000009147645986380596894_" gradientUnits="userSpaceOnUse" x1="306.7069" y1="850.2417" x2="688.3162" y2="648.9925">
			<stop  offset="0" style="stop-color:#267AA1"/>
			<stop  offset="1" style="stop-color:#3EB2E7"/>
		</linearGradient>
		<polygon style="fill:url(#SVGID_00000019639730583834721770000009147645986380596894_);" points="678,630 672.6,655 666.9,630 
			656.2,630 667.5,667.3 667.5,690.5 677.8,690.5 677.8,667.3 688.8,630 		"/>
	</g>
	<g>
		
			<linearGradient id="SVGID_00000165925392548974312260000013784651028222537878_" gradientUnits="userSpaceOnUse" x1="257.8951" y1="757.6847" x2="639.5044" y2="556.4355">
			<stop  offset="0" style="stop-color:#267AA1"/>
			<stop  offset="1" style="stop-color:#3EB2E7"/>
		</linearGradient>
		<polygon style="fill:url(#SVGID_00000165925392548974312260000013784651028222537878_);" points="306.4,762.3 316.7,762.3 
			316.7,711.7 326.7,711.7 326.7,701.8 296.4,701.8 296.4,711.7 306.4,711.7 		"/>
		
			<linearGradient id="SVGID_00000047778038465058517290000000934455058005179266_" gradientUnits="userSpaceOnUse" x1="264.291" y1="769.8124" x2="645.9002" y2="568.5632">
			<stop  offset="0" style="stop-color:#267AA1"/>
			<stop  offset="1" style="stop-color:#3EB2E7"/>
		</linearGradient>
		
			<rect x="330.8" y="701.8" style="fill:url(#SVGID_00000047778038465058517290000000934455058005179266_);" width="10.3" height="60.5"/>
		
			<linearGradient id="SVGID_00000039101013979059535960000015429060179151451310_" gradientUnits="userSpaceOnUse" x1="271.1851" y1="782.8851" x2="652.7943" y2="581.6359">
			<stop  offset="0" style="stop-color:#267AA1"/>
			<stop  offset="1" style="stop-color:#3EB2E7"/>
		</linearGradient>
		<polygon style="fill:url(#SVGID_00000039101013979059535960000015429060179151451310_);" points="378.3,724.8 378.3,762.3 
			387.5,762.3 387.5,701.8 377.9,701.8 367.6,734.7 357.6,701.8 347.7,701.8 347.7,762.3 357.1,762.3 357.1,726.2 365,751.6 
			370.2,751.6 		"/>
		
			<linearGradient id="SVGID_00000021112818877471353310000007531103404802120085_" gradientUnits="userSpaceOnUse" x1="280.0632" y1="799.7198" x2="661.6724" y2="598.4706">
			<stop  offset="0" style="stop-color:#267AA1"/>
			<stop  offset="1" style="stop-color:#3EB2E7"/>
		</linearGradient>
		<polygon style="fill:url(#SVGID_00000021112818877471353310000007531103404802120085_);" points="421.8,762.3 421.8,752.2 
			405.3,752.2 405.3,737.2 419.8,737.2 419.8,727.2 405.3,727.2 405.3,711.8 421.8,711.8 421.8,701.8 405.3,701.8 399.5,701.8 
			395,701.8 395,762.3 399.5,762.3 405.3,762.3 		"/>
	</g>
	<g>
		
			<linearGradient id="SVGID_00000026131893718217758830000001141365293734921884_" gradientUnits="userSpaceOnUse" x1="287.5275" y1="813.8736" x2="669.1367" y2="612.6244">
			<stop  offset="0" style="stop-color:#267AA1"/>
			<stop  offset="1" style="stop-color:#3EB2E7"/>
		</linearGradient>
		<polygon style="fill:url(#SVGID_00000026131893718217758830000001141365293734921884_);" points="326.7,783.5 326.7,773.6 
			296.4,773.6 296.4,783.5 306.4,783.5 306.4,834.1 316.7,834.1 316.7,783.5 		"/>
		
			<linearGradient id="SVGID_00000044161158914457370470000015824998686862606977_" gradientUnits="userSpaceOnUse" x1="297.035" y1="831.9018" x2="678.6443" y2="630.6526">
			<stop  offset="0" style="stop-color:#267AA1"/>
			<stop  offset="1" style="stop-color:#3EB2E7"/>
		</linearGradient>
		<path style="fill:url(#SVGID_00000044161158914457370470000015824998686862606977_);" d="M339.4,773.6l-14.4,60.5h10.2l1.9-9.4
			H349l1.9,9.4h10.2l-14.4-60.5H339.4z M338.9,815.1l4.1-20.6l4.1,20.6H338.9z"/>
		
			<linearGradient id="SVGID_00000098212946184194669390000016849617670560905650_" gradientUnits="userSpaceOnUse" x1="302.6258" y1="842.503" x2="684.235" y2="641.2538">
			<stop  offset="0" style="stop-color:#267AA1"/>
			<stop  offset="1" style="stop-color:#3EB2E7"/>
		</linearGradient>
		<path style="fill:url(#SVGID_00000098212946184194669390000016849617670560905650_);" d="M390.5,804.5c-1.4-0.9-3.2-1.5-5.2-1.8
			c1.9-0.3,3.4-0.9,4.8-1.8c1.3-0.9,2.3-2.1,3-3.5c0.7-1.4,1-3,1-4.8v-6.5c0-2.6-0.5-4.9-1.5-6.8c-1-1.9-2.5-3.3-4.4-4.3
			c-1.9-1-4.3-1.5-7-1.5h-5.3h-4.5h-5.9v60.5h5.9h4.5h6.2c2.7,0,5-0.5,6.9-1.5c1.9-1,3.4-2.4,4.4-4.3c1-1.9,1.5-4.2,1.5-6.8v-8.2
			c0-2-0.4-3.7-1.1-5.2C393,806.6,391.9,805.4,390.5,804.5z M380.2,783.2c1.2,0,2.1,0.3,2.8,1c0.7,0.7,1,1.6,1,2.9v6.5
			c0,1.4-0.3,2.6-1,3.3c-0.7,0.8-1.6,1.2-2.9,1.2h-4.2v-14.9H380.2z M384.6,820.5c0,1.2-0.4,2.2-1.1,2.9c-0.7,0.7-1.7,1-3,1h-4.6
			v-16.7h4.5c0.9,0,1.7,0.2,2.3,0.6c0.6,0.4,1.1,0.9,1.4,1.6c0.3,0.7,0.5,1.6,0.5,2.6V820.5z"/>
		
			<linearGradient id="SVGID_00000057851206235872667030000013642920275255901081_" gradientUnits="userSpaceOnUse" x1="310.9909" y1="858.365" x2="692.6002" y2="657.1158">
			<stop  offset="0" style="stop-color:#267AA1"/>
			<stop  offset="1" style="stop-color:#3EB2E7"/>
		</linearGradient>
		<polygon style="fill:url(#SVGID_00000057851206235872667030000013642920275255901081_);" points="411.6,773.6 401.3,773.6 
			401.3,834.1 405.6,834.1 411.6,834.1 427.4,834.1 427.4,824.2 411.6,824.2 		"/>
		
			<linearGradient id="SVGID_00000142891264537273879680000002616106773479987897_" gradientUnits="userSpaceOnUse" x1="317.9121" y1="871.489" x2="699.5213" y2="670.2397">
			<stop  offset="0" style="stop-color:#267AA1"/>
			<stop  offset="1" style="stop-color:#3EB2E7"/>
		</linearGradient>
		<polygon style="fill:url(#SVGID_00000142891264537273879680000002616106773479987897_);" points="437.3,773.6 432.7,773.6 
			432.7,834.1 437.3,834.1 443,834.1 459.6,834.1 459.6,824 443,824 443,809.1 457.5,809.1 457.5,799 443,799 443,783.7 
			459.6,783.7 459.6,773.6 443,773.6 		"/>
	</g>
</g>
<g>
	<g>
		<g>
			<path class="st0" d="M649.3,409.2c0-0.7,0.1-1.5,0-2.3c0-0.1,0-0.3,0-0.4c-0.1-0.8-0.1-1.5,0-2.2v-15.5c-0.2-1.1-0.1-2.6-0.1-4.8
				c0-0.2,0-0.5,0.1-0.7v-18.3c0-0.1,0-0.3,0-0.4c0-1,0-1.8,0-2.5v-16.4c0-0.4-0.1-0.8,0-1.3c0-0.1,0-0.2,0-0.3v-19.9
				c0-0.3,0-0.5,0-0.8c0-1.1,0-2.3,0-3.4c0-3,0-6,0-9c0-1.9,0-3.7,0-5.6c0-5.2,0-10.5,0-15.7c0-6.2,0-12.5-0.1-18.7
				c0-1.3-0.9-3.4-1.9-3.8c-1.6-0.7-3.8-0.7-5.5-0.2c-1.2,0.4-2.6,2-2.8,3.2c-0.4,3.1-0.1,6.3-0.1,10.5c-2-1.3-2.9-1.9-3.8-2.5
				c-7.7-5.6-16.2-8-25.7-6.6c-11.7,1.8-20.6,7.7-26.4,18.1c-0.9,1.6-2.9,3.3-4.6,3.8c-19.1,5.6-27.7,19.7-29.3,38.2
				c-0.3,2.9-1.4,4.6-3.4,6.6c-3.9,3.8-8.2,7.6-10.7,12.2c-9.5,17.6-10.4,35.8-1.9,54.2c1.7,3.7,3.8,7.2,3.3,11.6
				c-1,8.3,0.9,16.2,4.7,23.5c6.2,12.2,15.9,19.8,29.9,21.4c1.6,0.2,3.7,1.3,4.4,2.7c4.1,7.2,10,12.2,17.5,15.3
				c15,6.2,29.2,5.1,42.3-5c0.8-0.6,1.8-1.1,3.7-2.2c0,4.3-0.1,7.6,0.1,10.9c0.1,1.3,0.6,3.2,1.5,3.8c4.2,2.6,8.8,0,8.9-4.9
				c0-1,0-2,0-3c0-14.1,0-28.2,0-42.3v-26.1c0-0.3,0-0.7,0-1.1C649.3,409.4,649.3,409.3,649.3,409.2z M611,306.9
				c5.1,10.1,13.2,16,24.5,17.4c1.4,0.2,3.8,1.5,3.8,2.4c0.3,9.8,0.2,19.6,0.2,29.6c-3.8-1-7.1-2.5-10.6-2.8
				c-12.7-1.2-22.4,4.5-30.2,13.9c-3.7,4.5-8.3,7.4-14.3,7.7c-3.7,0.2-6.1-1.2-7.4-4.9c-2.5-6.9-7.6-10.9-14.7-12.3
				c-1.2-0.2-3.9,0.7-3.9,1.2c0,2.6-1.8,5.8,1.6,7.8c0.6,0.4,1.4,0.5,2.1,0.8c4.1,2.1,6.6,5.3,6.5,10c-0.1,4.6-3,7.1-6.8,9
				c-1.3,0.6-3.2,1.6-3.5,2.8c-0.4,2-0.5,4.8,0.6,6.3c0.7,1,3.9,0.7,5.8,0.1c5.1-1.5,8.8-4.9,11.7-9.4c0.6-1,2.3-2,3.4-1.8
				c10.1,1.5,18-2.5,25-9.3c2.4-2.3,4.7-4.8,7.2-7.1c6.5-5.9,14-7.3,20.6-3.6c4.6,2.6,7.4,6.4,7.4,12c-0.1,13.1,0,26.2,0,39.3
				c0,5.2-0.2,5.4-5.3,6.1c-10.3,1.4-17.4,7.4-22.7,16c-1,1.6-3,3.9,0.1,5.7c4.3,2.5,6.4,2.4,8.4-0.9c3.3-5.7,7.9-9.5,14.3-11.2
				c3.8-1,5.2-0.1,5.2,3.8c-0.1,6.8,0.7,13.7-2.2,20.3c-9.1,20.4-36.3,22.5-49.5,8.1c-7.6-8.3-9.9-17.8-5.3-28
				c4.9-10.9,14-16.6,25.9-17.4c6.4-0.4,6.6-0.3,6.4-6.5c-0.3-7.3,4.6-10.9,9.8-14.3c2.6-1.7,4.4-6.1,2.6-8.5c-0.8-1-3.5-1.6-4.8-1
				c-7.9,3.3-14.1,8.5-16.6,17.1c-0.8,2.8-1.9,4.1-4.8,4.6c-7.1,1.4-13.4,4.6-18.7,9.6c-2,1.9-3.8,1.8-6,0.6c-3.9-2-7.2-4.4-8.5-8.9
				c-0.7-2.3-4.5-3.3-7.7-2.3c-2.9,0.9-2,3.1-1.6,5c1.2,5.6,4.7,9.5,9.4,12.5c6.7,4.3,6.6,2.5,4.1,11c-1,3.3-1,6.9-1.1,10.3
				c-0.1,2.9-1,3.6-3.9,2.9c-10.7-2.9-21.2-16.4-20.6-29.2c0.5-8.8-2-16.1-5.3-24c-7.1-16.9-4.9-33.2,6.9-47.7
				c2.1-2.5,5-4.6,7.9-6.2c2.8-1.5,3.6-2.9,3.3-6.1c-1-12.7,3.3-23.3,13.9-30.8c1.6-1.2,3.7-1.7,5.4-2.5c1.2,5.4,2.2,10.3,3.4,15
				c0.5,2.1,2.3,4.3,1.9,6.1c-0.4,1.6-3.2,2.5-4.8,3.9c-3.9,3.4-7.1,7.3-7.9,12.7c-0.3,2.3,0.3,3.3,2.7,3.3c3.2,0,5.8,0.3,7.7-3.8
				c1.4-3.1,5.3-5.3,8.4-7.4c0.9-0.6,2.9,0.4,4.4,1c5.2,1.9,10.3,4.1,15.6,5.9c2,0.7,4.3,1.1,5-2c0.9-4.5-0.1-6.8-3.7-7.4
				c-6.2-1-11.2-3.8-15.5-8.2c-9.5-9.8-8.4-26.4,1.6-35.5c8.8-7.9,22.3-7.3,29-3.5c9.4,5.4,15.1,16.9,13.2,27.6
				c-0.2,1-2.4,2.7-3.1,2.5c-3.5-1-7.2-2.1-10.1-4.2c-2.6-1.8-4.8-4.7-6.5-7.6c-2.5-4.1-5-1-7.4-0.4C609.4,302.8,610,305,611,306.9z
				"/>
		</g>
	</g>
	
		<linearGradient id="SVGID_00000146480547644415347960000016023467608621210035_" gradientUnits="userSpaceOnUse" x1="594.7559" y1="352.6514" x2="976.3651" y2="151.4022">
		<stop  offset="0" style="stop-color:#267AA1"/>
		<stop  offset="1" style="stop-color:#3EB2E7"/>
	</linearGradient>
	<polygon style="fill:url(#SVGID_00000146480547644415347960000016023467608621210035_);" points="672.5,340.3 689,340.3 689,330.2 
		672.5,330.2 672.5,315.2 687,315.2 687,305.2 672.5,305.2 672.5,289.8 689,289.8 689,279.8 672.5,279.8 666.7,279.8 662.1,279.8 
		662.1,340.3 666.7,340.3 	"/>
	
		<linearGradient id="SVGID_00000121978846500635144940000007193464441351919778_" gradientUnits="userSpaceOnUse" x1="623.6722" y1="407.4828" x2="1005.2815" y2="206.2336">
		<stop  offset="0" style="stop-color:#267AA1"/>
		<stop  offset="1" style="stop-color:#3EB2E7"/>
	</linearGradient>
	<polygon style="fill:url(#SVGID_00000121978846500635144940000007193464441351919778_);" points="672.1,412.1 682.5,412.1 
		682.5,361.5 692.5,361.5 692.5,351.6 662.1,351.6 662.1,361.5 672.1,361.5 	"/>
	
		<linearGradient id="SVGID_00000096740324392717870660000002170757798687478688_" gradientUnits="userSpaceOnUse" x1="653.3046" y1="463.6717" x2="1034.9138" y2="262.4225">
		<stop  offset="0" style="stop-color:#267AA1"/>
		<stop  offset="1" style="stop-color:#3EB2E7"/>
	</linearGradient>
	<polygon style="fill:url(#SVGID_00000096740324392717870660000002170757798687478688_);" points="692.5,433.3 692.5,423.4 
		662.1,423.4 662.1,433.3 672.1,433.3 672.1,483.9 682.5,483.9 682.5,433.3 	"/>
</g>
<g>
	<g>
		<g>
			<path class="st0" d="M122.1,142.5c0-0.7,0.1-1.5,0-2.3c0-0.1,0-0.3,0-0.4c-0.1-0.8-0.1-1.5,0-2.2v-15.5c-0.2-1.1-0.1-2.6-0.1-4.8
				c0-0.2,0-0.5,0.1-0.7V98.4c0-0.1,0-0.3,0-0.4c0-1,0-1.8,0-2.5V79.1c0-0.4-0.1-0.8,0-1.3c0-0.1,0-0.2,0-0.3V57.5
				c0-0.3,0-0.5,0-0.8c0-1.1,0-2.3,0-3.4c0-3,0-6,0-9c0-1.9,0-3.7,0-5.6c0-5.2,0-10.5,0-15.7c0-6.2,0-12.5-0.1-18.7
				c0-1.3-0.9-3.4-1.9-3.8c-1.6-0.7-3.8-0.7-5.5-0.2c-1.2,0.4-2.6,2-2.8,3.2c-0.4,3.1-0.1,6.3-0.1,10.5c-2-1.3-2.9-1.9-3.8-2.5
				c-7.7-5.6-16.2-8-25.7-6.6c-11.7,1.8-20.6,7.7-26.4,18.1c-0.9,1.6-2.9,3.3-4.6,3.8C32.1,32.4,23.5,46.6,21.9,65
				c-0.3,2.9-1.4,4.6-3.4,6.6c-3.9,3.8-8.2,7.6-10.7,12.2c-9.5,17.6-10.4,35.8-1.9,54.2c1.7,3.7,3.8,7.2,3.3,11.6
				c-1,8.3,0.9,16.2,4.7,23.5c6.2,12.2,15.9,19.8,29.9,21.4c1.6,0.2,3.7,1.3,4.4,2.7c4.1,7.2,10,12.2,17.5,15.3
				c15,6.2,29.2,5.1,42.3-5c0.8-0.6,1.8-1.1,3.7-2.2c0,4.3-0.1,7.6,0.1,10.9c0.1,1.3,0.6,3.2,1.5,3.8c4.2,2.6,8.8,0,8.9-4.9
				c0-1,0-2,0-3c0-14.1,0-28.2,0-42.3v-26.1c0-0.3,0-0.7,0-1.1C122.1,142.7,122.1,142.6,122.1,142.5z M83.7,40.2
				c5.1,10.1,13.2,16,24.5,17.4c1.4,0.2,3.8,1.5,3.8,2.4c0.3,9.8,0.2,19.6,0.2,29.6c-3.8-1-7.1-2.5-10.6-2.8
				c-12.7-1.2-22.4,4.5-30.2,13.9c-3.7,4.5-8.3,7.4-14.3,7.7c-3.7,0.2-6.1-1.2-7.4-4.9c-2.5-6.9-7.6-10.9-14.7-12.3
				C33.6,91,31,92,31,92.4c0,2.6-1.8,5.8,1.6,7.8c0.6,0.4,1.4,0.5,2.1,0.8c4.1,2.1,6.6,5.3,6.5,10c-0.1,4.6-3,7.1-6.8,9
				c-1.3,0.6-3.2,1.6-3.5,2.8c-0.4,2-0.5,4.8,0.6,6.3c0.7,1,3.9,0.7,5.8,0.1c5.1-1.5,8.8-4.9,11.7-9.4c0.6-1,2.3-2,3.4-1.8
				c10.1,1.5,18-2.5,25-9.3c2.4-2.3,4.7-4.8,7.2-7.1c6.5-5.9,14-7.3,20.6-3.6c4.6,2.6,7.4,6.4,7.4,12c-0.1,13.1,0,26.2,0,39.3
				c0,5.2-0.2,5.4-5.3,6.1c-10.3,1.4-17.4,7.4-22.7,16c-1,1.6-3,3.9,0.1,5.7c4.3,2.5,6.4,2.4,8.4-0.9c3.3-5.7,7.9-9.5,14.3-11.2
				c3.8-1,5.2-0.1,5.2,3.8c-0.1,6.8,0.7,13.7-2.2,20.3c-9.1,20.4-36.3,22.5-49.5,8.1c-7.6-8.3-9.9-17.8-5.3-28
				c4.9-10.9,14-16.6,25.9-17.4c6.4-0.4,6.6-0.3,6.4-6.5c-0.3-7.3,4.6-10.9,9.8-14.3c2.6-1.7,4.4-6.1,2.6-8.5c-0.8-1-3.5-1.6-4.8-1
				c-7.9,3.3-14.1,8.5-16.6,17.1c-0.8,2.8-1.9,4.1-4.8,4.6c-7.1,1.4-13.4,4.6-18.7,9.6c-2,1.9-3.8,1.8-6,0.6c-3.9-2-7.2-4.4-8.5-8.9
				c-0.7-2.3-4.5-3.3-7.7-2.3c-2.9,0.9-2,3.1-1.6,5c1.2,5.6,4.7,9.5,9.4,12.5c6.7,4.3,6.6,2.5,4.1,11c-1,3.3-1,6.9-1.1,10.3
				c-0.1,2.9-1,3.6-3.9,2.9C29,181,18.4,167.5,19.1,154.6c0.5-8.8-2-16.1-5.3-24C6.7,113.8,8.9,97.5,20.6,83c2.1-2.5,5-4.6,7.9-6.2
				c2.8-1.5,3.6-2.9,3.3-6.1c-1-12.7,3.3-23.3,13.9-30.8c1.6-1.2,3.7-1.7,5.4-2.5c1.2,5.4,2.2,10.3,3.4,15c0.5,2.1,2.3,4.3,1.9,6.1
				c-0.4,1.6-3.2,2.5-4.8,3.9c-3.9,3.4-7.1,7.3-7.9,12.7c-0.3,2.3,0.3,3.3,2.7,3.3c3.2,0,5.8,0.3,7.7-3.8c1.4-3.1,5.3-5.3,8.4-7.4
				c0.9-0.6,2.9,0.4,4.4,1c5.2,1.9,10.3,4.1,15.6,5.9c2,0.7,4.3,1.1,5-2c0.9-4.5-0.1-6.8-3.7-7.4c-6.2-1-11.2-3.8-15.5-8.2
				c-9.5-9.8-8.4-26.4,1.6-35.5c8.8-7.9,22.3-7.3,29-3.5c9.4,5.4,15.1,16.9,13.2,27.6c-0.2,1-2.4,2.7-3.1,2.5
				c-3.5-1-7.2-2.1-10.1-4.2c-2.6-1.8-4.8-4.7-6.5-7.6c-2.5-4.1-5-1-7.4-0.4C82.1,36.1,82.7,38.3,83.7,40.2z"/>
		</g>
	</g>
	<g>
		
			<linearGradient id="SVGID_00000163058407545429114800000002449474713749342611_" gradientUnits="userSpaceOnUse" x1="73.1893" y1="96.7534" x2="454.7986" y2="-104.4958">
			<stop  offset="0" style="stop-color:#267AA1"/>
			<stop  offset="1" style="stop-color:#3EB2E7"/>
		</linearGradient>
		<polygon style="fill:url(#SVGID_00000163058407545429114800000002449474713749342611_);" points="185.7,73.6 196.8,13.1 
			185.9,13.1 180.1,54.8 174.3,13.1 163.4,13.1 174.5,73.6 		"/>
		
			<linearGradient id="SVGID_00000084505565915621301790000017663352392229433777_" gradientUnits="userSpaceOnUse" x1="82.0264" y1="113.5102" x2="463.6356" y2="-87.739">
			<stop  offset="0" style="stop-color:#267AA1"/>
			<stop  offset="1" style="stop-color:#3EB2E7"/>
		</linearGradient>
		<path style="fill:url(#SVGID_00000084505565915621301790000017663352392229433777_);" d="M206.8,72.5c2.3,1.1,5.1,1.7,8.3,1.7
			s6-0.6,8.3-1.7c2.3-1.1,4.1-2.7,5.3-4.9c1.2-2.1,1.8-4.7,1.8-7.7V26.7c0-3-0.6-5.6-1.8-7.7c-1.2-2.1-3-3.8-5.3-4.9
			c-2.3-1.1-5.1-1.7-8.3-1.7s-6,0.6-8.3,1.7c-2.3,1.1-4.1,2.7-5.3,4.9c-1.2,2.1-1.8,4.7-1.8,7.7V60c0,3,0.6,5.6,1.8,7.7
			C202.7,69.8,204.5,71.4,206.8,72.5z M210.2,27.9c0-1.1,0.2-2,0.6-2.8c0.4-0.8,1-1.4,1.7-1.8c0.7-0.4,1.7-0.6,2.7-0.6
			c1.1,0,2,0.2,2.7,0.6c0.8,0.4,1.3,1,1.7,1.8c0.4,0.8,0.6,1.7,0.6,2.8v30.7c0,1.1-0.2,2.1-0.6,2.8c-0.4,0.8-1,1.4-1.7,1.8
			c-0.8,0.4-1.7,0.6-2.7,0.6c-1.1,0-2-0.2-2.7-0.6c-0.7-0.4-1.3-1-1.7-1.8c-0.4-0.8-0.6-1.7-0.6-2.8V27.9z"/>
		
			<linearGradient id="SVGID_00000023239439931177430670000003326765564178457482_" gradientUnits="userSpaceOnUse" x1="89.668" y1="128.0003" x2="471.2773" y2="-73.2489">
			<stop  offset="0" style="stop-color:#267AA1"/>
			<stop  offset="1" style="stop-color:#3EB2E7"/>
		</linearGradient>
		<polygon style="fill:url(#SVGID_00000023239439931177430670000003326765564178457482_);" points="247.5,13.1 237.2,13.1 
			237.2,73.6 241.5,73.6 247.5,73.6 263.3,73.6 263.3,63.7 247.5,63.7 		"/>
		
			<linearGradient id="SVGID_00000062193834607211479510000001014377367481114554_" gradientUnits="userSpaceOnUse" x1="95.3327" y1="138.7417" x2="476.942" y2="-62.5075">
			<stop  offset="0" style="stop-color:#267AA1"/>
			<stop  offset="1" style="stop-color:#3EB2E7"/>
		</linearGradient>
		<path style="fill:url(#SVGID_00000062193834607211479510000001014377367481114554_);" d="M284.9,59.2c0,1.5-0.4,2.6-1.1,3.4
			c-0.7,0.8-1.8,1.2-3.1,1.2c-1.3,0-2.3-0.4-3-1.2c-0.7-0.8-1.1-2-1.1-3.4V13.1h-10.4v45.9c0,3.2,0.6,5.9,1.7,8.2
			c1.1,2.3,2.8,4,5,5.2c2.2,1.2,4.8,1.8,7.8,1.8c3,0,5.6-0.6,7.8-1.8c2.2-1.2,3.8-3,5-5.2c1.2-2.3,1.7-5,1.7-8.2V13.1h-10.4V59.2z"
			/>
		
			<linearGradient id="SVGID_00000034081028983138109200000000051435212028114105_" gradientUnits="userSpaceOnUse" x1="102.2333" y1="151.8266" x2="483.8425" y2="-49.4226">
			<stop  offset="0" style="stop-color:#267AA1"/>
			<stop  offset="1" style="stop-color:#3EB2E7"/>
		</linearGradient>
		<polygon style="fill:url(#SVGID_00000034081028983138109200000000051435212028114105_);" points="297.8,23 307.8,23 307.8,73.6 
			318.1,73.6 318.1,23 328.1,23 328.1,13.1 297.8,13.1 		"/>
		
			<linearGradient id="SVGID_00000170999531418471910050000011248588819215033000_" gradientUnits="userSpaceOnUse" x1="108.6289" y1="163.9541" x2="490.2382" y2="-37.2951">
			<stop  offset="0" style="stop-color:#267AA1"/>
			<stop  offset="1" style="stop-color:#3EB2E7"/>
		</linearGradient>
		
			<rect x="332.2" y="13.1" style="fill:url(#SVGID_00000170999531418471910050000011248588819215033000_);" width="10.3" height="60.5"/>
		
			<linearGradient id="SVGID_00000002352662415037547010000013225937864352484486_" gradientUnits="userSpaceOnUse" x1="114.549" y1="175.1797" x2="496.1582" y2="-26.0695">
			<stop  offset="0" style="stop-color:#267AA1"/>
			<stop  offset="1" style="stop-color:#3EB2E7"/>
		</linearGradient>
		<path style="fill:url(#SVGID_00000002352662415037547010000013225937864352484486_);" d="M373,14.1c-2.3-1.1-5.1-1.7-8.3-1.7
			c-3.2,0-6,0.6-8.3,1.7c-2.3,1.1-4.1,2.7-5.3,4.9c-1.2,2.1-1.8,4.7-1.8,7.7V60c0,3,0.6,5.6,1.8,7.7c1.2,2.1,3,3.7,5.3,4.9
			c2.3,1.1,5.1,1.7,8.3,1.7c3.2,0,6-0.6,8.3-1.7c2.3-1.1,4.1-2.7,5.3-4.9c1.2-2.1,1.8-4.7,1.8-7.7V26.7c0-3-0.6-5.6-1.8-7.7
			C377,16.8,375.3,15.2,373,14.1z M369.6,58.6c0,1.1-0.2,2.1-0.6,2.8c-0.4,0.8-1,1.4-1.7,1.8c-0.8,0.4-1.7,0.6-2.7,0.6
			s-2-0.2-2.7-0.6c-0.7-0.4-1.3-1-1.7-1.8c-0.4-0.8-0.6-1.7-0.6-2.8V27.9c0-1.1,0.2-2,0.6-2.8c0.4-0.8,1-1.4,1.7-1.8
			c0.7-0.4,1.7-0.6,2.7-0.6s2,0.2,2.7,0.6c0.8,0.4,1.3,1,1.7,1.8c0.4,0.8,0.6,1.7,0.6,2.8V58.6z"/>
		
			<linearGradient id="SVGID_00000057107079430844155730000010951827905108806827_" gradientUnits="userSpaceOnUse" x1="122.6803" y1="190.5983" x2="504.2896" y2="-10.6509">
			<stop  offset="0" style="stop-color:#267AA1"/>
			<stop  offset="1" style="stop-color:#3EB2E7"/>
		</linearGradient>
		<polygon style="fill:url(#SVGID_00000057107079430844155730000010951827905108806827_);" points="407.9,50.2 394.8,13.1 
			386.7,13.1 386.7,73.5 396.1,73.5 396.1,38.4 409.1,73.5 417.3,73.5 417.3,13.1 407.9,13.1 		"/>
		
			<linearGradient id="SVGID_00000068645540594029123840000016822375843047294341_" gradientUnits="userSpaceOnUse" x1="132.3236" y1="208.8839" x2="513.9328" y2="7.6347">
			<stop  offset="0" style="stop-color:#267AA1"/>
			<stop  offset="1" style="stop-color:#3EB2E7"/>
		</linearGradient>
		<path style="fill:url(#SVGID_00000068645540594029123840000016822375843047294341_);" d="M435.4,13.1L421,73.6h10.2l1.9-9.4H445
			l1.9,9.4h10.2l-14.4-60.5H435.4z M435,54.5l4.1-20.6l4.1,20.6H435z"/>
		
			<linearGradient id="SVGID_00000049181333824298694480000014485290620572196779_" gradientUnits="userSpaceOnUse" x1="139.139" y1="221.8344" x2="520.7482" y2="20.5852">
			<stop  offset="0" style="stop-color:#267AA1"/>
			<stop  offset="1" style="stop-color:#3EB2E7"/>
		</linearGradient>
		<path style="fill:url(#SVGID_00000049181333824298694480000014485290620572196779_);" d="M484.9,46.3c2.3-1.1,4.1-2.7,5.3-4.8
			c1.2-2.1,1.8-4.7,1.8-7.6v-7.1c0-2.9-0.6-5.4-1.8-7.4c-1.2-2.1-3-3.6-5.3-4.7c-2.3-1.1-5.1-1.6-8.4-1.6h-4.8h-5.5h-4.6v60.6h10.1
			V48h3.5l7.5,25.6h11.1L484.9,46.3C484.8,46.3,484.9,46.3,484.9,46.3z M471.7,22.9h5.4c0.9,0,1.7,0.2,2.3,0.5
			c0.7,0.3,1.1,0.9,1.5,1.5c0.3,0.7,0.5,1.5,0.5,2.4v6.7c0,0.8-0.2,1.5-0.5,2.1c-0.3,0.6-0.8,1.1-1.5,1.4c-0.7,0.3-1.4,0.5-2.3,0.5
			h-5.4V22.9z"/>
		
			<linearGradient id="SVGID_00000068649547727108891900000010000331287967254681_" gradientUnits="userSpaceOnUse" x1="145.2192" y1="233.3366" x2="526.8284" y2="32.0874">
			<stop  offset="0" style="stop-color:#267AA1"/>
			<stop  offset="1" style="stop-color:#3EB2E7"/>
		</linearGradient>
		<polygon style="fill:url(#SVGID_00000068649547727108891900000010000331287967254681_);" points="516.5,13.1 511.1,38.1 
			505.4,13.1 494.7,13.1 506,50.4 506,73.6 516.4,73.6 516.4,50.4 527.3,13.1 		"/>
		
			<linearGradient id="SVGID_00000017512060914373810570000003615895312768104579_" gradientUnits="userSpaceOnUse" x1="102.8032" y1="152.9073" x2="484.4125" y2="-48.3418">
			<stop  offset="0" style="stop-color:#267AA1"/>
			<stop  offset="1" style="stop-color:#3EB2E7"/>
		</linearGradient>
		
			<rect x="169.3" y="84.9" style="fill:url(#SVGID_00000017512060914373810570000003615895312768104579_);" width="10.3" height="60.5"/>
		
			<linearGradient id="SVGID_00000100377261661980495250000001643537476770973856_" gradientUnits="userSpaceOnUse" x1="109.6974" y1="165.98" x2="491.3066" y2="-35.2692">
			<stop  offset="0" style="stop-color:#267AA1"/>
			<stop  offset="1" style="stop-color:#3EB2E7"/>
		</linearGradient>
		<polygon style="fill:url(#SVGID_00000100377261661980495250000001643537476770973856_);" points="216.9,107.9 216.9,145.4 
			226.1,145.4 226.1,84.9 216.4,84.9 206.1,117.8 196.1,84.9 186.2,84.9 186.2,145.4 195.6,145.4 195.6,109.3 203.5,134.7 
			208.7,134.7 		"/>
		
			<linearGradient id="SVGID_00000146479738772516239030000009990625541115583912_" gradientUnits="userSpaceOnUse" x1="118.5755" y1="182.8147" x2="500.1847" y2="-18.4345">
			<stop  offset="0" style="stop-color:#267AA1"/>
			<stop  offset="1" style="stop-color:#3EB2E7"/>
		</linearGradient>
		<polygon style="fill:url(#SVGID_00000146479738772516239030000009990625541115583912_);" points="260.4,145.4 260.4,135.3 
			243.8,135.3 243.8,120.3 258.3,120.3 258.3,110.3 243.8,110.3 243.8,94.9 260.4,94.9 260.4,84.9 243.8,84.9 238,84.9 233.5,84.9 
			233.5,145.4 238,145.4 243.8,145.4 		"/>
		
			<linearGradient id="SVGID_00000076599132468321592590000012218030418209525694_" gradientUnits="userSpaceOnUse" x1="67.491" y1="85.9482" x2="449.1003" y2="-115.3009">
			<stop  offset="0" style="stop-color:#267AA1"/>
			<stop  offset="1" style="stop-color:#3EB2E7"/>
		</linearGradient>
		<polygon style="fill:url(#SVGID_00000076599132468321592590000012218030418209525694_);" points="145.2,73.6 161.8,73.6 
			161.8,63.5 145.2,63.5 145.2,48.5 159.7,48.5 159.7,38.5 145.2,38.5 145.2,23.1 161.8,23.1 161.8,13.1 145.2,13.1 139.5,13.1 
			134.9,13.1 134.9,73.6 139.5,73.6 		"/>
		
			<linearGradient id="SVGID_00000033329503429522493260000008784749534058915235_" gradientUnits="userSpaceOnUse" x1="96.4074" y1="140.7796" x2="478.0167" y2="-60.4696">
			<stop  offset="0" style="stop-color:#267AA1"/>
			<stop  offset="1" style="stop-color:#3EB2E7"/>
		</linearGradient>
		<polygon style="fill:url(#SVGID_00000033329503429522493260000008784749534058915235_);" points="144.9,145.4 155.2,145.4 
			155.2,94.8 165.2,94.8 165.2,84.9 134.9,84.9 134.9,94.8 144.9,94.8 		"/>
		
			<linearGradient id="SVGID_00000078724493249961867960000002646723319219703729_" gradientUnits="userSpaceOnUse" x1="126.0398" y1="196.9685" x2="507.649" y2="-4.2807">
			<stop  offset="0" style="stop-color:#267AA1"/>
			<stop  offset="1" style="stop-color:#3EB2E7"/>
		</linearGradient>
		<polygon style="fill:url(#SVGID_00000078724493249961867960000002646723319219703729_);" points="165.2,166.6 165.2,156.7 
			134.9,156.7 134.9,166.6 144.9,166.6 144.9,217.2 155.2,217.2 155.2,166.6 		"/>
		
			<linearGradient id="SVGID_00000103251092826922525420000003606163295211712642_" gradientUnits="userSpaceOnUse" x1="135.5473" y1="214.9967" x2="517.1566" y2="13.7476">
			<stop  offset="0" style="stop-color:#267AA1"/>
			<stop  offset="1" style="stop-color:#3EB2E7"/>
		</linearGradient>
		<path style="fill:url(#SVGID_00000103251092826922525420000003606163295211712642_);" d="M177.9,156.7l-14.4,60.5h10.2l1.9-9.4
			h11.9l1.9,9.4h10.2l-14.4-60.5H177.9z M177.4,198.1l4.1-20.6l4.1,20.6H177.4z"/>
		
			<linearGradient id="SVGID_00000160895899367121499220000008900744857377318034_" gradientUnits="userSpaceOnUse" x1="141.138" y1="225.5979" x2="522.7473" y2="24.3487">
			<stop  offset="0" style="stop-color:#267AA1"/>
			<stop  offset="1" style="stop-color:#3EB2E7"/>
		</linearGradient>
		<path style="fill:url(#SVGID_00000160895899367121499220000008900744857377318034_);" d="M229,187.6c-1.4-0.9-3.2-1.5-5.2-1.8
			c1.9-0.3,3.4-0.9,4.8-1.8c1.3-0.9,2.3-2.1,3-3.5c0.7-1.4,1-3,1-4.8v-6.5c0-2.6-0.5-4.9-1.5-6.8c-1-1.9-2.5-3.3-4.4-4.3
			c-1.9-1-4.3-1.5-7-1.5h-5.3H210h-5.9v60.5h5.9h4.5h6.2c2.7,0,5-0.5,6.9-1.5c1.9-1,3.4-2.4,4.4-4.3s1.5-4.2,1.5-6.8v-8.2
			c0-2-0.4-3.7-1.1-5.2C231.6,189.7,230.5,188.5,229,187.6z M218.7,166.3c1.2,0,2.1,0.3,2.8,1c0.7,0.7,1,1.6,1,2.9v6.5
			c0,1.4-0.3,2.6-1,3.3c-0.7,0.8-1.6,1.2-2.9,1.2h-4.2v-14.9H218.7z M223.1,203.6c0,1.2-0.4,2.2-1.1,2.9s-1.7,1-3,1h-4.6v-16.7h4.5
			c0.9,0,1.7,0.2,2.3,0.6c0.6,0.4,1.1,0.9,1.4,1.6c0.3,0.7,0.5,1.6,0.5,2.6V203.6z"/>
		
			<linearGradient id="SVGID_00000113338836896465317270000000072838832703682744_" gradientUnits="userSpaceOnUse" x1="149.5032" y1="241.4599" x2="531.1124" y2="40.2107">
			<stop  offset="0" style="stop-color:#267AA1"/>
			<stop  offset="1" style="stop-color:#3EB2E7"/>
		</linearGradient>
		<polygon style="fill:url(#SVGID_00000113338836896465317270000000072838832703682744_);" points="250.2,156.7 239.8,156.7 
			239.8,217.2 244.1,217.2 250.2,217.2 265.9,217.2 265.9,207.3 250.2,207.3 		"/>
		
			<linearGradient id="SVGID_00000152978508159543131540000002134777447544512687_" gradientUnits="userSpaceOnUse" x1="156.4244" y1="254.5839" x2="538.0336" y2="53.3347">
			<stop  offset="0" style="stop-color:#267AA1"/>
			<stop  offset="1" style="stop-color:#3EB2E7"/>
		</linearGradient>
		<polygon style="fill:url(#SVGID_00000152978508159543131540000002134777447544512687_);" points="275.8,156.7 271.2,156.7 
			271.2,217.2 275.8,217.2 281.5,217.2 298.1,217.2 298.1,207.1 281.5,207.1 281.5,192.2 296,192.2 296,182.1 281.5,182.1 
			281.5,166.8 298.1,166.8 298.1,156.7 281.5,156.7 		"/>
	</g>
</g>
<g>
	
		<linearGradient id="SVGID_00000106122513429550095610000010444847865160702641_" gradientUnits="userSpaceOnUse" x1="900.4106" y1="347.1896" x2="1282.0198" y2="145.9404">
		<stop  offset="0" style="stop-color:#267AA1"/>
		<stop  offset="1" style="stop-color:#3EB2E7"/>
	</linearGradient>
	<polygon style="fill:url(#SVGID_00000106122513429550095610000010444847865160702641_);" points="1012.9,324 1024,263.5 
		1013.1,263.5 1007.3,305.3 1001.5,263.5 990.6,263.5 1001.7,324 	"/>
	
		<linearGradient id="SVGID_00000082337785408599268390000002987782421654303362_" gradientUnits="userSpaceOnUse" x1="909.2476" y1="363.9464" x2="1290.8568" y2="162.6972">
		<stop  offset="0" style="stop-color:#267AA1"/>
		<stop  offset="1" style="stop-color:#3EB2E7"/>
	</linearGradient>
	<path style="fill:url(#SVGID_00000082337785408599268390000002987782421654303362_);" d="M1034,323c2.3,1.1,5.1,1.7,8.3,1.7
		s6-0.6,8.3-1.7c2.3-1.1,4.1-2.7,5.3-4.9c1.2-2.1,1.8-4.7,1.8-7.7v-33.3c0-3-0.6-5.6-1.8-7.7c-1.2-2.1-3-3.8-5.3-4.9
		c-2.3-1.1-5.1-1.7-8.3-1.7s-6,0.6-8.3,1.7c-2.3,1.1-4.1,2.7-5.3,4.9c-1.2,2.1-1.8,4.7-1.8,7.7v33.3c0,3,0.6,5.6,1.8,7.7
		C1029.9,320.2,1031.7,321.8,1034,323z M1037.4,278.4c0-1.1,0.2-2,0.6-2.8c0.4-0.8,1-1.4,1.7-1.8c0.7-0.4,1.7-0.6,2.7-0.6
		c1.1,0,2,0.2,2.7,0.6c0.8,0.4,1.3,1,1.7,1.8c0.4,0.8,0.6,1.7,0.6,2.8v30.7c0,1.1-0.2,2.1-0.6,2.8c-0.4,0.8-1,1.4-1.7,1.8
		c-0.8,0.4-1.7,0.6-2.7,0.6c-1.1,0-2-0.2-2.7-0.6c-0.7-0.4-1.3-1-1.7-1.8c-0.4-0.8-0.6-1.7-0.6-2.8V278.4z"/>
	
		<linearGradient id="SVGID_00000050648988565637458420000007911610725794490292_" gradientUnits="userSpaceOnUse" x1="916.8893" y1="378.4365" x2="1298.4985" y2="177.1873">
		<stop  offset="0" style="stop-color:#267AA1"/>
		<stop  offset="1" style="stop-color:#3EB2E7"/>
	</linearGradient>
	<polygon style="fill:url(#SVGID_00000050648988565637458420000007911610725794490292_);" points="1074.8,263.5 1064.4,263.5 
		1064.4,324 1068.7,324 1074.8,324 1090.5,324 1090.5,314.1 1074.8,314.1 	"/>
	
		<linearGradient id="SVGID_00000085970174258638490040000016653265373028815242_" gradientUnits="userSpaceOnUse" x1="922.554" y1="389.1779" x2="1304.1632" y2="187.9288">
		<stop  offset="0" style="stop-color:#267AA1"/>
		<stop  offset="1" style="stop-color:#3EB2E7"/>
	</linearGradient>
	<path style="fill:url(#SVGID_00000085970174258638490040000016653265373028815242_);" d="M1112.1,309.7c0,1.5-0.4,2.6-1.1,3.4
		c-0.7,0.8-1.8,1.2-3.1,1.2c-1.3,0-2.3-0.4-3-1.2c-0.7-0.8-1.1-2-1.1-3.4v-46.2h-10.4v45.9c0,3.2,0.6,5.9,1.7,8.2
		c1.1,2.3,2.8,4,5,5.2c2.2,1.2,4.8,1.8,7.8,1.8c3,0,5.6-0.6,7.8-1.8c2.2-1.2,3.8-3,5-5.2c1.2-2.3,1.7-5,1.7-8.2v-45.9h-10.4V309.7z"
		/>
	
		<linearGradient id="SVGID_00000011026078269475245270000013558959606035096761_" gradientUnits="userSpaceOnUse" x1="929.4545" y1="402.2628" x2="1311.0637" y2="201.0136">
		<stop  offset="0" style="stop-color:#267AA1"/>
		<stop  offset="1" style="stop-color:#3EB2E7"/>
	</linearGradient>
	<polygon style="fill:url(#SVGID_00000011026078269475245270000013558959606035096761_);" points="1125.1,273.4 1135,273.4 
		1135,324 1145.4,324 1145.4,273.4 1155.4,273.4 1155.4,263.5 1125.1,263.5 	"/>
	
		<linearGradient id="SVGID_00000054263936301904276940000017534419779788755862_" gradientUnits="userSpaceOnUse" x1="935.8502" y1="414.3903" x2="1317.4595" y2="213.1411">
		<stop  offset="0" style="stop-color:#267AA1"/>
		<stop  offset="1" style="stop-color:#3EB2E7"/>
	</linearGradient>
	
		<rect x="1159.4" y="263.5" style="fill:url(#SVGID_00000054263936301904276940000017534419779788755862_);" width="10.3" height="60.5"/>
	
		<linearGradient id="SVGID_00000095320994458874347230000011847584180703548596_" gradientUnits="userSpaceOnUse" x1="941.7702" y1="425.6159" x2="1323.3795" y2="224.3667">
		<stop  offset="0" style="stop-color:#267AA1"/>
		<stop  offset="1" style="stop-color:#3EB2E7"/>
	</linearGradient>
	<path style="fill:url(#SVGID_00000095320994458874347230000011847584180703548596_);" d="M1200.2,264.5c-2.3-1.1-5.1-1.7-8.3-1.7
		c-3.2,0-6,0.6-8.3,1.7c-2.3,1.1-4.1,2.7-5.3,4.9s-1.8,4.7-1.8,7.7v33.3c0,3,0.6,5.6,1.8,7.7s3,3.7,5.3,4.9c2.3,1.1,5.1,1.7,8.3,1.7
		c3.2,0,6-0.6,8.3-1.7c2.3-1.1,4.1-2.7,5.3-4.9s1.8-4.7,1.8-7.7v-33.3c0-3-0.6-5.6-1.8-7.7S1202.5,265.6,1200.2,264.5z
		 M1196.9,309.1c0,1.1-0.2,2.1-0.6,2.8c-0.4,0.8-1,1.4-1.7,1.8c-0.8,0.4-1.7,0.6-2.7,0.6c-1.1,0-2-0.2-2.7-0.6
		c-0.7-0.4-1.3-1-1.7-1.8c-0.4-0.8-0.6-1.7-0.6-2.8v-30.7c0-1.1,0.2-2,0.6-2.8c0.4-0.8,1-1.4,1.7-1.8c0.7-0.4,1.7-0.6,2.7-0.6
		c1.1,0,2,0.2,2.7,0.6c0.8,0.4,1.3,1,1.7,1.8c0.4,0.8,0.6,1.7,0.6,2.8V309.1z"/>
	
		<linearGradient id="SVGID_00000169525155255440210610000010636246204193310134_" gradientUnits="userSpaceOnUse" x1="949.9016" y1="441.0345" x2="1331.5107" y2="239.7853">
		<stop  offset="0" style="stop-color:#267AA1"/>
		<stop  offset="1" style="stop-color:#3EB2E7"/>
	</linearGradient>
	<polygon style="fill:url(#SVGID_00000169525155255440210610000010636246204193310134_);" points="1235.1,300.7 1222,263.5 
		1213.9,263.5 1213.9,324 1223.3,324 1223.3,288.9 1236.3,324 1244.5,324 1244.5,263.5 1235.1,263.5 	"/>
	
		<linearGradient id="SVGID_00000078762772703290177970000018194165059436749195_" gradientUnits="userSpaceOnUse" x1="959.5448" y1="459.3201" x2="1341.1541" y2="258.0709">
		<stop  offset="0" style="stop-color:#267AA1"/>
		<stop  offset="1" style="stop-color:#3EB2E7"/>
	</linearGradient>
	<path style="fill:url(#SVGID_00000078762772703290177970000018194165059436749195_);" d="M1262.6,263.5l-14.4,60.5h10.2l1.9-9.4
		h11.9l1.9,9.4h10.2l-14.4-60.5H1262.6z M1262.2,305l4.1-20.6l4.1,20.6H1262.2z"/>
	
		<linearGradient id="SVGID_00000161589231041507026110000005702426924601242780_" gradientUnits="userSpaceOnUse" x1="966.3602" y1="472.2706" x2="1347.9695" y2="271.0214">
		<stop  offset="0" style="stop-color:#267AA1"/>
		<stop  offset="1" style="stop-color:#3EB2E7"/>
	</linearGradient>
	<path style="fill:url(#SVGID_00000161589231041507026110000005702426924601242780_);" d="M1312.1,296.8c2.3-1.1,4.1-2.7,5.3-4.8
		s1.8-4.7,1.8-7.6v-7.1c0-2.9-0.6-5.4-1.8-7.4c-1.2-2.1-3-3.6-5.3-4.7c-2.3-1.1-5.1-1.6-8.4-1.6h-4.8h-5.5h-4.6V324h10.1v-25.6h3.5
		l7.5,25.6h11.1L1312.1,296.8C1312,296.8,1312.1,296.8,1312.1,296.8z M1298.9,273.4h5.4c0.9,0,1.7,0.2,2.3,0.5
		c0.7,0.3,1.1,0.9,1.5,1.5c0.3,0.7,0.5,1.5,0.5,2.4v6.7c0,0.8-0.2,1.5-0.5,2.1c-0.3,0.6-0.8,1.1-1.5,1.4c-0.7,0.3-1.4,0.5-2.3,0.5
		h-5.4V273.4z"/>
	
		<linearGradient id="SVGID_00000012447852215054502750000006643465294704564923_" gradientUnits="userSpaceOnUse" x1="972.4404" y1="483.7728" x2="1354.0497" y2="282.5237">
		<stop  offset="0" style="stop-color:#267AA1"/>
		<stop  offset="1" style="stop-color:#3EB2E7"/>
	</linearGradient>
	<polygon style="fill:url(#SVGID_00000012447852215054502750000006643465294704564923_);" points="1343.7,263.5 1338.3,288.5 
		1332.7,263.5 1321.9,263.5 1333.3,300.8 1333.3,324 1343.6,324 1343.6,300.8 1354.5,263.5 	"/>
	
		<linearGradient id="SVGID_00000005231310049445576410000004361117085432045959_" gradientUnits="userSpaceOnUse" x1="930.0245" y1="403.3436" x2="1311.6337" y2="202.0944">
		<stop  offset="0" style="stop-color:#267AA1"/>
		<stop  offset="1" style="stop-color:#3EB2E7"/>
	</linearGradient>
	
		<rect x="996.5" y="335.3" style="fill:url(#SVGID_00000005231310049445576410000004361117085432045959_);" width="10.3" height="60.5"/>
	
		<linearGradient id="SVGID_00000085213991957694960250000008589877713583891081_" gradientUnits="userSpaceOnUse" x1="936.9186" y1="416.4162" x2="1318.5278" y2="215.167">
		<stop  offset="0" style="stop-color:#267AA1"/>
		<stop  offset="1" style="stop-color:#3EB2E7"/>
	</linearGradient>
	<polygon style="fill:url(#SVGID_00000085213991957694960250000008589877713583891081_);" points="1044.1,358.3 1044.1,395.8 
		1053.3,395.8 1053.3,335.3 1043.6,335.3 1033.3,368.2 1023.3,335.3 1013.4,335.3 1013.4,395.8 1022.8,395.8 1022.8,359.7 
		1030.8,385.1 1035.9,385.1 	"/>
	
		<linearGradient id="SVGID_00000060750487475156229080000007139551387904005504_" gradientUnits="userSpaceOnUse" x1="945.7967" y1="433.2509" x2="1327.406" y2="232.0017">
		<stop  offset="0" style="stop-color:#267AA1"/>
		<stop  offset="1" style="stop-color:#3EB2E7"/>
	</linearGradient>
	<polygon style="fill:url(#SVGID_00000060750487475156229080000007139551387904005504_);" points="1087.6,395.8 1087.6,385.8 
		1071,385.8 1071,370.8 1085.5,370.8 1085.5,360.7 1071,360.7 1071,345.4 1087.6,345.4 1087.6,335.3 1071,335.3 1065.3,335.3 
		1060.7,335.3 1060.7,395.8 1065.3,395.8 1071,395.8 	"/>
	
		<linearGradient id="SVGID_00000052089798199228482490000004424766847735401890_" gradientUnits="userSpaceOnUse" x1="894.7123" y1="336.3845" x2="1276.3215" y2="135.1353">
		<stop  offset="0" style="stop-color:#267AA1"/>
		<stop  offset="1" style="stop-color:#3EB2E7"/>
	</linearGradient>
	<polygon style="fill:url(#SVGID_00000052089798199228482490000004424766847735401890_);" points="972.4,324 989,324 989,313.9 
		972.4,313.9 972.4,299 986.9,299 986.9,288.9 972.4,288.9 972.4,273.6 989,273.6 989,263.5 972.4,263.5 966.7,263.5 962.1,263.5 
		962.1,324 966.7,324 	"/>
	
		<linearGradient id="SVGID_00000005964632530576976780000010651283599953355698_" gradientUnits="userSpaceOnUse" x1="923.6287" y1="391.2158" x2="1305.2379" y2="189.9666">
		<stop  offset="0" style="stop-color:#267AA1"/>
		<stop  offset="1" style="stop-color:#3EB2E7"/>
	</linearGradient>
	<polygon style="fill:url(#SVGID_00000005964632530576976780000010651283599953355698_);" points="972.1,395.8 982.4,395.8 
		982.4,345.2 992.4,345.2 992.4,335.3 962.1,335.3 962.1,345.2 972.1,345.2 	"/>
	
		<linearGradient id="SVGID_00000096054287382792338820000004151303448762380215_" gradientUnits="userSpaceOnUse" x1="953.261" y1="447.4047" x2="1334.8702" y2="246.1555">
		<stop  offset="0" style="stop-color:#267AA1"/>
		<stop  offset="1" style="stop-color:#3EB2E7"/>
	</linearGradient>
	<polygon style="fill:url(#SVGID_00000096054287382792338820000004151303448762380215_);" points="992.4,417 992.4,407.1 
		962.1,407.1 962.1,417 972.1,417 972.1,467.7 982.4,467.7 982.4,417 	"/>
	
		<linearGradient id="SVGID_00000094611880696667206840000017206508526872468138_" gradientUnits="userSpaceOnUse" x1="962.7686" y1="465.433" x2="1344.3778" y2="264.1838">
		<stop  offset="0" style="stop-color:#267AA1"/>
		<stop  offset="1" style="stop-color:#3EB2E7"/>
	</linearGradient>
	<path style="fill:url(#SVGID_00000094611880696667206840000017206508526872468138_);" d="M1005.1,407.1l-14.4,60.5h10.2l1.9-9.4
		h11.9l1.9,9.4h10.2l-14.4-60.5H1005.1z M1004.7,448.6l4.1-20.6l4.1,20.6H1004.7z"/>
	
		<linearGradient id="SVGID_00000020356283545568170800000009364565716963743881_" gradientUnits="userSpaceOnUse" x1="968.3593" y1="476.0341" x2="1349.9685" y2="274.7849">
		<stop  offset="0" style="stop-color:#267AA1"/>
		<stop  offset="1" style="stop-color:#3EB2E7"/>
	</linearGradient>
	<path style="fill:url(#SVGID_00000020356283545568170800000009364565716963743881_);" d="M1056.3,438c-1.4-0.9-3.2-1.5-5.2-1.8
		c1.9-0.3,3.4-0.9,4.8-1.8c1.3-0.9,2.3-2.1,3-3.5c0.7-1.4,1-3,1-4.8v-6.5c0-2.6-0.5-4.9-1.5-6.8c-1-1.9-2.5-3.3-4.4-4.3
		c-1.9-1-4.3-1.5-7-1.5h-5.3h-4.5h-5.9v60.5h5.9h4.5h6.2c2.7,0,5-0.5,6.9-1.5c1.9-1,3.4-2.4,4.4-4.3c1-1.9,1.5-4.2,1.5-6.8v-8.2
		c0-2-0.4-3.7-1.1-5.2C1058.8,440.1,1057.7,438.9,1056.3,438z M1045.9,416.8c1.2,0,2.1,0.3,2.8,1c0.7,0.7,1,1.6,1,2.9v6.5
		c0,1.4-0.3,2.6-1,3.3c-0.7,0.8-1.6,1.2-2.9,1.2h-4.2v-14.9H1045.9z M1050.3,454.1c0,1.2-0.4,2.2-1.1,2.9c-0.7,0.7-1.7,1-3,1h-4.6
		v-16.7h4.5c0.9,0,1.7,0.2,2.3,0.6c0.6,0.4,1.1,0.9,1.4,1.6c0.3,0.7,0.5,1.6,0.5,2.6V454.1z"/>
	
		<linearGradient id="SVGID_00000106142476054668210820000001488970036943333781_" gradientUnits="userSpaceOnUse" x1="976.7244" y1="491.8961" x2="1358.3336" y2="290.6469">
		<stop  offset="0" style="stop-color:#267AA1"/>
		<stop  offset="1" style="stop-color:#3EB2E7"/>
	</linearGradient>
	<polygon style="fill:url(#SVGID_00000106142476054668210820000001488970036943333781_);" points="1077.4,407.1 1067.1,407.1 
		1067.1,467.7 1071.3,467.7 1077.4,467.7 1093.1,467.7 1093.1,457.7 1077.4,457.7 	"/>
	
		<linearGradient id="SVGID_00000144338741681086724430000000032706057646409373_" gradientUnits="userSpaceOnUse" x1="983.6456" y1="505.0201" x2="1365.2549" y2="303.7709">
		<stop  offset="0" style="stop-color:#267AA1"/>
		<stop  offset="1" style="stop-color:#3EB2E7"/>
	</linearGradient>
	<polygon style="fill:url(#SVGID_00000144338741681086724430000000032706057646409373_);" points="1103,407.1 1098.4,407.1 
		1098.4,467.7 1103,467.7 1108.8,467.7 1125.3,467.7 1125.3,457.6 1108.8,457.6 1108.8,442.6 1123.3,442.6 1123.3,432.6 
		1108.8,432.6 1108.8,417.2 1125.3,417.2 1125.3,407.1 1108.8,407.1 	"/>
</g>
<g>
	<path class="st67" d="M-476,511.3h-107.2v-46.9H-476V511.3z M-577.2,505.3h95.2v-34.9h-95.2V505.3z"/>
</g>
<g>
	<path class="st67" d="M-374.8,511.3H-482v-46.9h107.2V511.3z M-476,505.3h95.2v-34.9H-476V505.3z"/>
</g>
<g>
	<rect x="-377.8" y="467.4" class="st68" width="101.2" height="40.9"/>
	<path class="st67" d="M-273.5,511.3h-107.2v-46.9h107.2V511.3z M-374.8,505.3h95.2v-34.9h-95.2V505.3z"/>
</g>
<g>
	<path class="st67" d="M-476,469.8h-107.2v-46.9H-476V469.8z M-577.2,463.8h95.2v-34.9h-95.2V463.8z"/>
</g>
<g>
	<rect x="-479" y="425.9" class="st67" width="101.2" height="40.9"/>
	<path class="st67" d="M-374.8,469.8H-482v-46.9h107.2V469.8z M-476,463.8h95.2v-34.9H-476V463.8z"/>
</g>
<g>
	<path class="st67" d="M-273.5,469.8h-107.2v-46.9h107.2V469.8z M-374.8,463.8h95.2v-34.9h-95.2V463.8z"/>
</g>
<g>
	<rect x="-580.2" y="508.3" class="st67" width="101.2" height="40.9"/>
	<path class="st67" d="M-476,552.2h-107.2v-46.9H-476V552.2z M-577.2,546.2h95.2v-34.9h-95.2V546.2z"/>
</g>
<g>
	<path class="st67" d="M-374.8,552.2H-482v-46.9h107.2V552.2z M-476,546.2h95.2v-34.9H-476V546.2z"/>
</g>
<g>
	<path class="st67" d="M-273.5,552.2h-107.2v-46.9h107.2V552.2z M-374.8,546.2h95.2v-34.9h-95.2V546.2z"/>
</g>
<rect x="-134" y="803.8" class="st67" width="69.1" height="69.1"/>
<rect x="-50.3" y="803.8" class="st68" width="69.1" height="69.1"/>
<rect x="33.3" y="803.8" class="st69" width="69.1" height="69.1"/>
<rect x="-384.2" y="966.5" class="st67" width="69.1" height="69.1"/>
<rect x="-300.5" y="966.5" class="st68" width="69.1" height="69.1"/>
<rect x="-216.8" y="966.5" class="st69" width="69.1" height="69.1"/>
</svg>
